<svg width="70" height="45" viewBox="0 0 70 45" fill="none" xmlns="http://www.w3.org/2000/svg">
<path d="M62.2562 41.75H63.6065L62.5819 40.8706L47.2086 27.6753L49.525 25.6898L65.2996 39.2109L66.125 39.9184V38.8312V6.01875V4.93552L65.3006 5.63824L37.4101 29.4132C37.4101 29.4132 37.41 29.4132 37.41 29.4132C36.6877 30.0287 35.6963 30.3842 34.65 30.3842C33.6037 30.3842 32.6124 30.0287 31.8901 29.4133C31.89 29.4133 31.89 29.4132 31.8899 29.4132L4.69949 6.2196L3.875 5.5163V6.6V39.075V40.1867L4.70675 39.4491L20.18 25.727L22.5502 27.6881L7.67456 40.8759L6.68853 41.75H8.00625H62.2562ZM7.24062 3.25H5.88406L6.91613 4.1304L34.3255 27.5116L34.6499 27.7883L34.9743 27.5118L62.4056 4.13053L63.4386 3.25H62.0812H7.24062ZM4.375 0.5H65.625C66.6755 0.5 67.6703 0.858369 68.3932 1.47798C69.1137 2.09554 69.5 2.9151 69.5 3.75V41.25C69.5 42.0849 69.1137 42.9045 68.3932 43.522C67.6703 44.1416 66.6755 44.5 65.625 44.5H4.375C3.32452 44.5 2.32968 44.1416 1.6068 43.522C0.886309 42.9045 0.5 42.0849 0.5 41.25V3.75C0.5 2.9151 0.886309 2.09554 1.6068 1.47798C2.32968 0.858369 3.32452 0.5 4.375 0.5Z" fill="white" stroke="#3B3B3B"/>
</svg>
