<svg width="49" height="49" viewBox="0 0 49 49" fill="none" xmlns="http://www.w3.org/2000/svg">
<path d="M39.1665 46.6156C43.272 46.6156 46.5999 43.6142 46.5999 39.9116C46.5999 36.2089 43.272 33.2075 39.1665 33.2075C35.0611 33.2075 31.7332 36.2089 31.7332 39.9116C31.7332 43.6142 35.0611 46.6156 39.1665 46.6156Z" stroke="white" stroke-width="3" stroke-linecap="round" stroke-linejoin="round"/>
<path d="M39.0335 15.4081C43.139 15.4081 46.4669 12.4066 46.4669 8.70404C46.4669 5.00151 43.139 2 39.0335 2C34.928 2 31.6001 5.00151 31.6001 8.70404C31.6001 12.4066 34.928 15.4081 39.0335 15.4081Z" stroke="white" stroke-width="3" stroke-linecap="round" stroke-linejoin="round"/>
<path d="M9.43339 30.9729C13.5387 30.9729 16.8668 27.9715 16.8668 24.2689C16.8668 20.5662 13.5387 17.5648 9.43339 17.5648C5.32805 17.5648 2 20.5662 2 24.2689C2 27.9715 5.32805 30.9729 9.43339 30.9729Z" stroke="white" stroke-width="3" stroke-linecap="round" stroke-linejoin="round"/>
<path d="M32.9725 11.978L15.6279 20.9167" stroke="white" stroke-width="3"/>
<path d="M15.6279 27.6208L32.9725 36.5596" stroke="white" stroke-width="3"/>
</svg>
