<svg width="45" height="35" viewBox="0 0 45 35" fill="none" xmlns="http://www.w3.org/2000/svg">
<path fill-rule="evenodd" clip-rule="evenodd" d="M0 0H44.9181V34.0395H0V0Z" fill="#229E45"/>
<path fill-rule="evenodd" clip-rule="evenodd" d="M22.5576 30.9193L43.7182 17.0411L22.4313 3.12036L1.20044 17.0695L22.5576 30.9193Z" fill="#F8E509"/>
<path fill-rule="evenodd" clip-rule="evenodd" d="M31.7797 17.0198C31.7797 22.0051 27.7722 26.0473 22.8242 26.0473C21.056 26.0445 19.3284 25.5121 17.8597 24.5173C16.3909 23.5226 15.2471 22.1101 14.5727 20.4586C13.8983 18.8071 13.7236 16.9906 14.0708 15.2388C14.4179 13.487 15.2713 11.8785 16.5231 10.6167C17.7748 9.35489 19.3687 8.49639 21.1033 8.14973C22.8379 7.80308 24.6352 7.98383 26.2681 8.66915C27.901 9.35446 29.2962 10.5136 30.2772 11.9999C31.2583 13.4863 31.7811 15.2332 31.7797 17.0198Z" fill="#2B49A3"/>
<path fill-rule="evenodd" clip-rule="evenodd" d="M19.8833 22.4307L19.6026 22.2676L19.3218 22.4094L19.385 22.0903L19.1604 21.8492L19.4762 21.8137L19.6306 21.5301L19.764 21.8279L20.0728 21.8846L19.8412 22.0974M25.8771 23.9625L25.6033 23.7994L25.3226 23.9412L25.3788 23.6221L25.1612 23.388L25.477 23.3526L25.6244 23.0618L25.7648 23.3597L26.0736 23.4164L25.835 23.6363M23.2943 21.5088L23.0556 21.367L22.81 21.4946L22.8662 21.218L22.6696 21.0124L22.9504 20.984L23.0767 20.7287L23.189 20.9911L23.4627 21.0407L23.2522 21.2322M29.3582 20.6294L29.1196 20.4876L28.8739 20.6152L28.9301 20.3387L28.7406 20.1401L29.0143 20.1117L29.1406 19.8635L29.2529 20.1188L29.5196 20.1685L29.3161 20.3529M23.189 18.7927L22.9083 18.6367L22.6275 18.7785L22.6837 18.4523L22.4661 18.2183L22.7819 18.1828L22.9293 17.8921L23.0697 18.1899L23.3785 18.2467L23.1399 18.4736M15.7986 15.9916L15.5178 15.8355L15.2371 15.9774L15.3073 15.6512L15.0757 15.4171L15.3985 15.3817L15.5389 15.0909L15.6793 15.3888L15.9881 15.4455L15.7565 15.6653M16.6899 19.7217L16.4092 19.5586L16.1284 19.7004L16.1916 19.3813L15.967 19.1473L16.2828 19.1047L16.4302 18.8211L16.5706 19.1189L16.8794 19.1757L16.6478 19.3955M25.9122 14.6229L25.6595 14.481L25.4068 14.6087L25.463 14.325L25.2665 14.1123L25.5472 14.0768L25.6805 13.8215L25.7999 14.091L26.0806 14.1407L25.87 14.3321M25.3998 17.0482L25.2103 16.9347L25.0068 17.034L25.0489 16.8071L24.8945 16.644L25.1191 16.6156L25.2244 16.417L25.3156 16.6298L25.5261 16.6652L25.3717 16.8213M15.3915 20.3954L15.202 20.289L15.0125 20.3812L15.0546 20.1685L14.9072 20.0125L15.1178 19.9841L15.216 19.7926L15.3073 19.9912L15.5178 20.0337L15.3564 20.1756M29.4073 21.2606L29.2529 21.1826L29.0985 21.2535L29.1336 21.0904L29.0143 20.9769L29.1828 20.9556L29.267 20.8138L29.3372 20.9556L29.5126 20.9911L29.3793 21.0975" fill="#FFFFEF"/>
<path fill-rule="evenodd" clip-rule="evenodd" d="M15.3921 20.396L15.2024 20.2895L15.0126 20.3818L15.0548 20.1688L14.9072 20.0126L15.118 19.9842L15.2164 19.7925L15.3078 19.9913L15.5186 20.0339L15.357 20.1759" fill="#FFFFEF"/>
<path fill-rule="evenodd" clip-rule="evenodd" d="M15.3915 20.3954L15.202 20.289L15.0125 20.3812L15.0546 20.1684L14.9072 20.0124L15.1178 19.9841L15.216 19.7926L15.3073 19.9912L15.5178 20.0337L15.3564 20.1755M18.3252 20.3883L18.1427 20.289L17.9532 20.3812L17.9953 20.1684L17.848 20.0124L18.0585 19.9841L18.1568 19.7926L18.248 19.9912L18.4586 20.0266L18.2971 20.1755M17.9603 21.3811L17.7778 21.2747L17.5883 21.374L17.6304 21.1613L17.483 20.9982L17.6936 20.9698L17.7918 20.7783L17.8831 20.9769L18.0936 21.0194L17.9322 21.1613M24.0663 19.5869L23.8838 19.4735L23.6873 19.5727L23.7294 19.36L23.5891 19.1969L23.7996 19.1756L23.8979 18.9842L23.9821 19.1827L24.1926 19.2182L24.0382 19.3671M22.2766 19.5798L22.0871 19.4735L21.8976 19.5727L21.9397 19.36L21.7993 19.1969L22.0099 19.1756L22.1082 18.9771L22.1924 19.1827L22.4029 19.2182L22.2485 19.3671M17.4198 18.9558L17.3005 18.8849L17.1812 18.9416L17.2093 18.8069L17.118 18.7076L17.2514 18.6934L17.3075 18.5728L17.3637 18.7005L17.497 18.7218L17.3988 18.814M29.1757 22.0335L28.9933 21.9271L28.8038 22.0264L28.8459 21.8137L28.6985 21.6506L28.909 21.6222L29.0073 21.4307L29.0985 21.6293L29.3091 21.6719L29.1477 21.8137M27.6878 22.2392L27.5334 22.1399L27.372 22.225L27.4071 22.0406L27.2878 21.913L27.4632 21.8917L27.5475 21.7286L27.6176 21.8988L27.7931 21.9271L27.6598 22.0548M28.3897 22.2179L28.2493 22.1328L28.1019 22.2037L28.13 22.0406L28.0177 21.9201L28.1791 21.8988L28.2563 21.7569L28.3265 21.8988L28.4879 21.9342L28.3686 22.0477M30.411 20.4308L30.2706 20.3599L30.1302 20.4308L30.1653 20.2677L30.053 20.1472L30.2145 20.1259L30.2847 19.9841L30.3548 20.133L30.5022 20.1613L30.3899 20.2748M27.6668 23.2391L27.4913 23.1398L27.3018 23.2249L27.3439 23.0263L27.2036 22.8845L27.4141 22.8632L27.5053 22.6859L27.5896 22.8703L27.8001 22.9058L27.6387 23.0405M27.6808 24.0475L27.5124 23.9482L27.3439 24.0404L27.386 23.8419L27.2527 23.7L27.4422 23.6717L27.5264 23.4944L27.6036 23.6788L27.7931 23.7142L27.6527 23.8561M26.3192 22.2179L26.1859 22.1328L26.0455 22.2037L26.0736 22.0477L25.9683 21.9271L26.1227 21.913L26.1929 21.7711L26.2631 21.913L26.4175 21.9413L26.3052 22.0548M25.0559 22.2179L24.9155 22.1328L24.7752 22.2037L24.8103 22.0477L24.698 21.9271L24.8594 21.913L24.9296 21.7711L24.9998 21.913L25.1471 21.9413L25.0349 22.0548M22.9012 20.3103L22.7609 20.2323L22.6205 20.3032L22.6556 20.1401L22.5433 20.0266L22.6977 20.0053L22.7679 19.8635L22.8381 20.0053L22.9925 20.0408L22.8802 20.1472M23.1399 24.1894L23.0276 24.1255L22.9012 24.1894L22.9293 24.0475L22.8381 23.9482L22.9714 23.9341L23.0346 23.8135L23.0907 23.9412L23.2241 23.9624L23.1258 24.0546M19.8833 17.9133L19.6026 17.7502L19.3218 17.892L19.385 17.5729L19.1604 17.3389L19.4762 17.2964L19.6306 17.0127L19.764 17.3105L20.0728 17.3673L19.8412 17.5871" fill="#FFFFEF"/>
<path fill-rule="evenodd" clip-rule="evenodd" d="M31.1899 20.2676C31.3637 19.8117 31.4999 19.3421 31.5969 18.8635C26.8384 14.644 21.5395 12.4811 14.8439 12.9278C14.601 13.4026 14.4014 13.8987 14.2473 14.41C22.1782 13.6441 28.0035 17.1899 31.1899 20.2676Z" fill="white"/>
<path d="M29.0565 17.899L29.2179 17.9912C29.1938 18.0393 29.1864 18.0943 29.1969 18.1472C29.2133 18.1985 29.2484 18.2416 29.2951 18.2677C29.3442 18.3032 29.3934 18.3245 29.4355 18.3174C29.4776 18.3174 29.5057 18.2961 29.5267 18.2677C29.539 18.2489 29.544 18.2262 29.5408 18.2039C29.535 18.1777 29.523 18.1534 29.5057 18.133C29.4916 18.1117 29.4565 18.0621 29.4004 18.0054C29.3427 17.9452 29.2995 17.8724 29.2741 17.7926C29.2565 17.7322 29.2611 17.6675 29.2868 17.6102C29.3126 17.553 29.3579 17.5069 29.4144 17.4806C29.4655 17.4591 29.5219 17.4541 29.5758 17.4664C29.6418 17.4818 29.704 17.5107 29.7583 17.5515C29.8566 17.6224 29.9198 17.6933 29.9408 17.7784C29.9505 17.8182 29.9518 17.8597 29.9445 17.9C29.9373 17.9403 29.9216 17.9786 29.8987 18.0124L29.7303 17.9061C29.7513 17.8635 29.7583 17.821 29.7443 17.7855C29.7373 17.7501 29.7092 17.7146 29.6601 17.6862C29.624 17.6569 29.5799 17.6396 29.5337 17.6366C29.521 17.6362 29.5084 17.6392 29.4973 17.6455C29.4862 17.6517 29.4769 17.6609 29.4706 17.6721C29.4565 17.6933 29.4565 17.7146 29.4636 17.743C29.4706 17.7713 29.5057 17.8281 29.5758 17.899C29.646 17.9699 29.6881 18.0337 29.7162 18.0763C29.7413 18.1227 29.7526 18.1755 29.7489 18.2283C29.7452 18.2811 29.7265 18.3317 29.6952 18.3741C29.6623 18.4223 29.6158 18.4594 29.5618 18.4805C29.5092 18.505 29.4503 18.5124 29.3934 18.5018C29.3302 18.4876 29.267 18.4592 29.1969 18.4096C29.0916 18.3387 29.0284 18.2607 29.0074 18.1756C28.9845 18.0791 28.9996 17.9774 29.0495 17.8919L29.0565 17.899ZM28.2423 17.36L28.4178 17.4522C28.3961 17.5012 28.3911 17.5561 28.4038 17.6082C28.4217 17.6569 28.4567 17.6973 28.502 17.7217C28.5582 17.7572 28.6003 17.7713 28.6424 17.7642C28.6845 17.7642 28.7126 17.743 28.7336 17.7075C28.7443 17.6906 28.7492 17.6707 28.7477 17.6508C28.7477 17.6295 28.7336 17.6011 28.7126 17.5799C28.6766 17.536 28.6392 17.4934 28.6003 17.4522C28.5231 17.3742 28.474 17.3104 28.4599 17.2537C28.4484 17.2172 28.445 17.1786 28.4498 17.1406C28.4547 17.1026 28.4677 17.0662 28.488 17.0338C28.5147 16.99 28.5538 16.9554 28.6003 16.9345C28.6485 16.9121 28.7023 16.9047 28.7547 16.9133C28.8196 16.9243 28.8817 16.9484 28.9372 16.9842C29.0424 17.0551 29.1056 17.126 29.1267 17.204C29.1395 17.2439 29.1436 17.2861 29.1387 17.3277C29.1339 17.3693 29.1202 17.4094 29.0986 17.4451L28.9231 17.3458C28.9442 17.2962 28.9512 17.2607 28.9372 17.2253C28.9231 17.1898 28.8951 17.1544 28.8459 17.126C28.8071 17.0978 28.7604 17.0829 28.7126 17.0835C28.7011 17.0842 28.6899 17.0879 28.6801 17.0941C28.6703 17.1003 28.6622 17.1088 28.6564 17.1189C28.6424 17.1402 28.6424 17.1615 28.6494 17.1898C28.6564 17.2182 28.6985 17.2749 28.7687 17.3458C28.8389 17.4168 28.888 17.4735 28.9091 17.516C28.9372 17.5605 28.9522 17.6122 28.9522 17.665C28.9522 17.7177 28.9372 17.7694 28.9091 17.8139C28.8788 17.8634 28.8349 17.9028 28.7828 17.9273C28.7301 17.9518 28.6713 17.9593 28.6143 17.9486C28.5421 17.9363 28.4729 17.9098 28.4108 17.8706C28.3201 17.8217 28.2502 17.741 28.2143 17.6437C28.1871 17.549 28.1972 17.4474 28.2423 17.36ZM27.2457 17.0905L27.7581 16.2396L28.3757 16.6296L28.2915 16.7714L27.8423 16.4878L27.73 16.6792L28.1511 16.9416L28.0599 17.0835L27.6388 16.8211L27.4984 17.0551L27.9686 17.3387L27.8844 17.4806L27.2527 17.0905H27.2457ZM25.7929 15.885L25.8701 15.7431L26.2491 15.9346L26.0736 16.2892C26.0175 16.3034 25.9473 16.3105 25.8631 16.3034C25.7822 16.2944 25.7037 16.2703 25.6315 16.2325C25.5466 16.1907 25.474 16.1271 25.4209 16.0481C25.3727 15.9747 25.3481 15.888 25.3507 15.7999C25.3543 15.7082 25.3783 15.6185 25.4209 15.5375C25.4631 15.4522 25.5259 15.379 25.6034 15.3247C25.6776 15.2729 25.7659 15.2457 25.8561 15.2467C25.9263 15.2467 25.9964 15.268 26.0807 15.3177C26.193 15.3673 26.2631 15.4382 26.2982 15.5162C26.3347 15.5937 26.3422 15.6818 26.3193 15.7644L26.1298 15.7077C26.1414 15.6602 26.1364 15.6101 26.1158 15.5659C26.0947 15.5233 26.0596 15.4949 26.0035 15.4666C25.9707 15.4477 25.9344 15.436 25.8969 15.4324C25.8594 15.4287 25.8216 15.4331 25.7859 15.4453C25.7157 15.4666 25.6525 15.5304 25.6034 15.6297C25.5543 15.729 25.5332 15.8212 25.5543 15.8992C25.564 15.9362 25.5816 15.9706 25.6058 16C25.6301 16.0294 25.6604 16.0531 25.6946 16.0694C25.7297 16.0906 25.7718 16.1048 25.814 16.1048C25.8558 16.1112 25.8984 16.1112 25.9403 16.1048L25.9964 15.9914L25.7929 15.885ZM19.4623 14.3036L19.6026 13.3107L19.8974 13.3604L19.9746 14.0554L20.2483 13.4171L20.5431 13.4597L20.4027 14.4383L20.2132 14.4099L20.3325 13.637L20.0237 14.3816L19.8342 14.3532L19.757 13.5519L19.6447 14.3319L19.4623 14.3036ZM18.4727 14.183L18.5639 13.1902L19.2868 13.2611L19.2728 13.4313L18.7464 13.3817L18.7253 13.5944L19.2166 13.644L19.1956 13.8142L18.7043 13.7646L18.6832 14.0341L19.2306 14.0837L19.2166 14.2539L18.4727 14.183Z" fill="#309E3A"/>
<path d="M15.195 13.5663C15.195 13.4599 15.2161 13.3819 15.2442 13.311C15.2688 13.2605 15.302 13.2149 15.3424 13.1762C15.3784 13.1395 15.4214 13.1106 15.4687 13.0911C15.5389 13.0698 15.6091 13.0557 15.6793 13.0557C15.8267 13.0557 15.939 13.1124 16.0302 13.1975C16.0737 13.2517 16.106 13.3141 16.1252 13.3811C16.1445 13.4481 16.1504 13.5182 16.1425 13.5875C16.1425 13.7435 16.0934 13.8712 16.0022 13.9634C15.9553 14.0072 15.8998 14.0405 15.8394 14.0613C15.7789 14.0821 15.7148 14.0898 15.6512 14.0839C15.5885 14.0846 15.5263 14.0723 15.4684 14.048C15.4105 14.0236 15.3581 13.9876 15.3143 13.9421C15.227 13.8377 15.1841 13.7025 15.195 13.5663Z" fill="#309E3A"/>
<path d="M15.3984 13.5665C15.3984 13.673 15.4195 13.7582 15.4687 13.8221C15.5179 13.8789 15.5811 13.9144 15.6655 13.9144C15.7019 13.917 15.7385 13.9113 15.7726 13.8978C15.8066 13.8843 15.8372 13.8633 15.8622 13.8363C15.9114 13.7795 15.9325 13.6943 15.9395 13.5736C15.9395 13.46 15.9255 13.3748 15.8692 13.318C15.8464 13.2894 15.8175 13.2663 15.7847 13.2503C15.7518 13.2344 15.7159 13.2259 15.6795 13.2257C15.6426 13.2245 15.6058 13.2315 15.5718 13.2463C15.5378 13.261 15.5074 13.283 15.4828 13.3109C15.4265 13.3677 15.4055 13.4529 15.3984 13.5665Z" fill="#F7FFFF"/>
<path d="M16.353 14.0766L16.3671 13.0837H16.7882C16.8934 13.0837 16.9636 13.0979 17.0128 13.1192C17.0619 13.1334 17.097 13.1688 17.1251 13.2114C17.1531 13.2539 17.1672 13.3107 17.1672 13.3745C17.1677 13.4427 17.1426 13.5086 17.097 13.5589C17.0451 13.608 16.9783 13.638 16.9075 13.644L17.0128 13.7291C17.0408 13.7574 17.0759 13.8142 17.118 13.8922L17.2374 14.0907H16.9987L16.8584 13.8638L16.7601 13.722C16.7431 13.7025 16.7213 13.6878 16.6969 13.6794C16.665 13.67 16.6319 13.6652 16.5987 13.6652H16.5566V14.0766H16.353Z" fill="#309E3A"/>
<path d="M16.5637 13.5095H16.7043C16.8026 13.5095 16.8659 13.5095 16.887 13.4953C16.908 13.4953 16.9291 13.474 16.9432 13.4598C16.9572 13.4456 16.9643 13.4101 16.9643 13.3888C16.9643 13.3462 16.9572 13.3178 16.9362 13.3036C16.9221 13.2823 16.894 13.2681 16.8659 13.261H16.7253L16.5637 13.2539V13.5024V13.5095Z" fill="white"/>
<path d="M17.4759 13.1335L17.8408 13.1548C17.918 13.1548 17.9812 13.1619 18.0233 13.1761C18.078 13.1961 18.1264 13.2304 18.1637 13.2754C18.2041 13.325 18.2329 13.3831 18.2479 13.4456C18.269 13.5094 18.276 13.5874 18.269 13.6796C18.2689 13.752 18.2571 13.8239 18.2339 13.8923C18.2058 13.9633 18.1637 14.02 18.1146 14.0625C18.0737 14.0966 18.0257 14.1208 17.9742 14.1335C17.9321 14.1476 17.8689 14.1476 17.7987 14.1476L17.4268 14.1264L17.4759 13.1335Z" fill="#309E3A"/>
<path d="M17.6655 13.3108L17.6304 13.9711H17.8974C17.9325 13.9711 17.9606 13.9569 17.9817 13.9356C18.0028 13.9143 18.0239 13.8859 18.0379 13.8433C18.052 13.8007 18.066 13.7368 18.066 13.6587L18.059 13.4812C18.049 13.4438 18.0296 13.4095 18.0028 13.3818C17.9795 13.3581 17.9504 13.3409 17.9185 13.3321C17.8653 13.3201 17.8113 13.313 17.7569 13.3108H17.6655Z" fill="white"/>
<path d="M22.2908 14.9066L22.5224 13.9421L22.8312 14.0131L23.0558 14.084C23.1049 14.1123 23.147 14.1549 23.1681 14.2187C23.1962 14.2754 23.1962 14.3393 23.1821 14.4173C23.1681 14.474 23.147 14.5236 23.1119 14.5591C23.0862 14.5902 23.054 14.6153 23.0176 14.6324C22.9812 14.6496 22.9415 14.6585 22.9014 14.6584C22.8522 14.6584 22.7821 14.6442 22.6908 14.6229L22.5715 14.5875L22.4873 14.9562L22.2908 14.9066Z" fill="#309E3A"/>
<path d="M22.6695 14.1548L22.6133 14.4246L22.7187 14.453C22.789 14.4672 22.8452 14.4814 22.8733 14.4743C22.9006 14.4705 22.9261 14.4582 22.9462 14.4391C22.9664 14.42 22.9802 14.3951 22.9857 14.3678C22.9857 14.3323 22.9857 14.3039 22.9717 14.2755C22.9562 14.2466 22.9314 14.224 22.9014 14.2116L22.7679 14.1761L22.6765 14.1548H22.6695Z" fill="white"/>
<path d="M23.2029 15.1829L23.5327 14.2468L23.9188 14.3887C24.024 14.4241 24.0872 14.4596 24.1293 14.4879C24.1644 14.5234 24.1925 14.5589 24.1995 14.6156C24.2065 14.6723 24.2135 14.722 24.1995 14.7787C24.1714 14.8496 24.1293 14.8993 24.0732 14.9347C24.017 14.9631 23.9468 14.9702 23.8626 14.956C23.8907 14.9914 23.9188 15.0269 23.9328 15.0694L23.9889 15.2609L24.0311 15.4808L23.8135 15.4028L23.7433 15.1475C23.7305 15.0897 23.7141 15.0329 23.6942 14.9773C23.6849 14.9552 23.6704 14.9357 23.6521 14.9205C23.638 14.8992 23.61 14.8851 23.5608 14.8709L23.5257 14.8567L23.3854 15.2538L23.2029 15.1829Z" fill="#309E3A"/>
<path d="M23.5822 14.7084L23.7157 14.7581C23.8071 14.7936 23.8633 14.8078 23.8914 14.8078C23.9125 14.8078 23.9336 14.8078 23.9547 14.7865C23.9757 14.7723 23.9898 14.751 23.9968 14.7226C24.0109 14.6942 24.0109 14.6658 23.9968 14.6374C23.9864 14.6099 23.9664 14.5872 23.9406 14.5735L23.8001 14.5238L23.6595 14.4741L23.5752 14.7084H23.5822Z" fill="white"/>
<path d="M24.3541 15.1476C24.3782 15.0646 24.4188 14.9874 24.4734 14.9207C24.5089 14.8779 24.5516 14.8418 24.5997 14.8143C24.6432 14.7895 24.6907 14.7727 24.7401 14.7646C24.8103 14.7646 24.8804 14.7646 24.9576 14.793C25.0204 14.8087 25.0791 14.8377 25.1299 14.878C25.1807 14.9184 25.2225 14.9692 25.2524 15.027C25.3086 15.1405 25.3086 15.2752 25.2665 15.4313C25.2317 15.5653 25.1459 15.68 25.0278 15.7504C24.9225 15.8142 24.7962 15.8213 24.6629 15.7787C24.6003 15.7626 24.5418 15.7335 24.491 15.6932C24.4402 15.6529 24.3984 15.6023 24.3681 15.5447C24.34 15.4827 24.3243 15.4157 24.3219 15.3476C24.3195 15.2794 24.3304 15.2115 24.3541 15.1476Z" fill="#309E3A"/>
<path d="M24.5509 15.2049C24.5228 15.3114 24.5158 15.4037 24.5509 15.4747C24.586 15.5457 24.6352 15.5883 24.7125 15.6167C24.7828 15.638 24.8531 15.6309 24.9233 15.5883C24.9936 15.5528 25.0358 15.4747 25.0709 15.3611C25.106 15.2546 25.106 15.1694 25.0709 15.0984C25.057 15.0647 25.036 15.0345 25.0093 15.01C24.9825 14.9854 24.9508 14.9671 24.9163 14.9564C24.8817 14.9443 24.845 14.94 24.8086 14.9437C24.7722 14.9473 24.737 14.9589 24.7055 14.9777C24.6352 15.0203 24.586 15.0913 24.5509 15.2049Z" fill="white"/>
<path d="M26.2698 16.5305L26.719 15.6511L27.0909 15.8426C27.1611 15.8766 27.2251 15.9221 27.2804 15.9773C27.3155 16.0128 27.3366 16.0553 27.3366 16.1121C27.3366 16.1688 27.3366 16.2184 27.3085 16.2681C27.2815 16.3319 27.2312 16.3827 27.1681 16.4099C27.098 16.4241 27.0278 16.4241 26.9506 16.3957C26.9786 16.4383 26.9927 16.4808 27.0067 16.5163C27.0207 16.5588 27.0278 16.6227 27.0348 16.7149L27.0488 16.9418L26.8383 16.8354L26.8102 16.573C26.8069 16.5135 26.7998 16.4543 26.7891 16.3957C26.7844 16.3692 26.7722 16.3446 26.7541 16.3248L26.6698 16.2752L26.6347 16.2539L26.4452 16.6227L26.2698 16.5305Z" fill="#309E3A"/>
<path d="M26.7053 16.1125L26.8388 16.1835C26.9232 16.2261 26.9794 16.2545 27.0005 16.2545C27.0215 16.2545 27.0496 16.2545 27.0707 16.2403C27.0918 16.2332 27.1059 16.2119 27.1199 16.1835C27.134 16.1551 27.141 16.1267 27.134 16.0983C27.1253 16.07 27.1081 16.0452 27.0848 16.0273C27.0437 16.0018 27.0015 15.9781 26.9583 15.9563L26.8178 15.8853L26.7053 16.1125Z" fill="white"/>
<path d="M29.9055 18.3459C29.9509 18.273 30.0106 18.2103 30.081 18.1615C30.1282 18.131 30.1805 18.1094 30.2354 18.0977C30.2863 18.0872 30.3388 18.0872 30.3898 18.0977C30.46 18.1119 30.5231 18.1403 30.5863 18.1828C30.6409 18.2172 30.6878 18.2627 30.7241 18.3164C30.7603 18.3702 30.7851 18.4309 30.7968 18.4949C30.8179 18.6154 30.7828 18.7501 30.6986 18.8849C30.6281 19.0021 30.5145 19.0862 30.3828 19.1189C30.3199 19.1326 30.2549 19.1328 30.192 19.1193C30.1291 19.1059 30.0698 19.0792 30.0178 19.0409C29.9632 19.0065 29.9162 18.961 29.88 18.9073C29.8437 18.8536 29.819 18.7928 29.8072 18.7289C29.7862 18.6012 29.8213 18.4736 29.9055 18.3459Z" fill="#309E3A"/>
<path d="M30.0812 18.4596C30.0109 18.5519 29.9898 18.6371 30.0039 18.7152C30.009 18.7511 30.0217 18.7856 30.0411 18.8162C30.0605 18.8468 30.0861 18.8729 30.1163 18.8927C30.1866 18.9424 30.2568 18.9566 30.3271 18.9353C30.3974 18.914 30.4676 18.8643 30.5309 18.7649C30.5941 18.6655 30.6222 18.5803 30.6082 18.5093C30.6012 18.4383 30.559 18.3744 30.4958 18.3247C30.4325 18.275 30.3552 18.2679 30.2849 18.2892C30.2147 18.3034 30.1444 18.3602 30.0741 18.4596H30.0812Z" fill="white"/>
<path d="M21.1816 14.5021L21.3431 13.8071L21.8484 13.9277L21.8273 14.0412L21.4554 13.9561L21.4203 14.1121L21.7642 14.1901L21.7361 14.3106L21.3922 14.2255L21.3501 14.417L21.7361 14.5092L21.708 14.6227L21.1816 14.5021Z" fill="#309E3A"/>
</svg>
