<svg width="53" height="53" viewBox="0 0 53 53" fill="none" xmlns="http://www.w3.org/2000/svg">
<path d="M26.1635 2.18018C19.87 2.11623 13.8086 4.55367 9.31145 8.95681C4.81428 13.3599 2.24933 19.3685 2.1803 25.6619C2.20455 30.6356 3.80449 35.4735 6.75033 39.481C9.69617 43.4884 13.8363 46.4591 18.5761 47.9663C19.7753 48.1844 20.2113 47.4649 20.2113 46.8326C20.2113 46.2003 20.2113 44.8049 20.2113 42.8427C13.5396 44.2598 12.1224 39.703 12.1224 39.703C11.6783 38.2725 10.7341 37.0497 9.46248 36.2582C7.28219 34.8192 9.6369 34.841 9.6369 34.841C10.3905 34.9417 11.1116 35.2118 11.7459 35.6309C12.3803 36.0501 12.9115 36.6074 13.2998 37.2611C13.9764 38.4344 15.0866 39.2951 16.3915 39.658C17.6963 40.0209 19.0915 39.857 20.2767 39.2016C20.3986 38.0076 20.9393 36.8953 21.8029 36.0619C16.483 35.4733 10.9015 33.4674 10.9015 24.4628C10.8539 22.1139 11.7218 19.8386 13.3216 18.1181C12.593 16.1015 12.679 13.8803 13.5614 11.9261C13.5614 11.9261 15.5891 11.2938 20.1023 14.3244C24.031 13.2775 28.1653 13.2775 32.0939 14.3244C36.6725 11.2938 38.6348 11.9261 38.6348 11.9261C39.5172 13.8803 39.6032 16.1015 38.8746 18.1181C40.5116 19.8071 41.4266 22.0671 41.4256 24.4192C41.4256 33.4456 35.8004 35.4297 30.5241 36.0183C31.1019 36.5793 31.5481 37.2612 31.8309 38.0152C32.1136 38.7692 32.2258 39.5764 32.1593 40.3789V46.8108C32.1593 46.8108 32.5954 48.1844 33.7946 47.9445C38.5209 46.4279 42.6471 43.4565 45.5838 39.4548C48.5205 35.453 50.1176 30.6256 50.1468 25.6619C50.0777 19.3685 47.5128 13.3599 43.0156 8.95681C38.5184 4.55367 32.457 2.11623 26.1635 2.18018Z" fill="white"/>
</svg>
