<svg width="53" height="53" viewBox="0 0 53 53" fill="none" xmlns="http://www.w3.org/2000/svg">
<path d="M48.4512 0H3.86275C1.73043 0 0 1.68973 0 3.77045V48.5515C0 50.6351 1.73043 52.327 3.86275 52.327H48.4512C50.585 52.327 52.327 50.6351 52.327 48.5515V3.77045C52.327 1.68973 50.585 0 48.4512 0ZM15.5193 44.5899H7.75458V19.619H15.5193V44.5899ZM11.637 16.2047C9.14924 16.2047 7.13828 14.1886 7.13828 11.7031C7.13828 9.22119 9.14924 7.20514 11.637 7.20514C14.1189 7.20514 16.1349 9.22119 16.1349 11.7031C16.1349 14.1886 14.1189 16.2047 11.637 16.2047ZM44.587 44.5899H36.8346V32.4471C36.8346 29.5502 36.7779 25.8256 32.8003 25.8256C28.761 25.8256 28.1454 28.9805 28.1454 32.2371V44.5906H20.3872V19.619H27.8329V23.029H27.939C28.9754 21.0667 31.5074 18.9962 35.2837 18.9962C43.1371 18.9962 44.5877 24.1664 44.5877 30.8926L44.587 44.5899Z" fill="white"/>
</svg>
