<svg width="27" height="27" viewBox="0 0 27 27" fill="none" xmlns="http://www.w3.org/2000/svg">
<path d="M0.999999 21.4125C0.999999 21.8625 1.10015 22.325 1.31297 22.775C1.52579 23.225 1.8012 23.65 2.16424 24.05C2.77766 24.725 3.45368 25.2125 4.21732 25.525C4.96845 25.8375 5.78217 26 6.65849 26C7.9354 26 9.29995 25.7 10.7396 25.0875C12.1793 24.475 13.6189 23.65 15.0461 22.6125C16.5006 21.5501 17.8732 20.3802 19.1522 19.1125C20.4182 17.84 21.5858 16.4736 22.645 15.025C23.6715 13.6 24.4977 12.175 25.0986 10.7625C25.6995 9.3375 26 7.975 26 6.675C26 5.825 25.8498 5.0125 25.5493 4.2625C25.2489 3.5 24.7732 2.8 24.1097 2.175C23.3085 1.3875 22.4321 1 21.5058 1C21.1552 1 20.8047 1.075 20.4917 1.225C20.1662 1.375 19.8783 1.6 19.653 1.925L16.7486 6.0125C16.5233 6.325 16.3605 6.6125 16.2479 6.8875C16.1352 7.15 16.0726 7.4125 16.0726 7.65C16.0726 7.95 16.1602 8.25 16.3355 8.5375C16.4982 8.825 16.7361 9.125 17.0366 9.425L17.988 10.4125C18.1257 10.55 18.1883 10.7125 18.1883 10.9125C18.1883 11.0125 18.1758 11.1 18.1507 11.2C18.1132 11.3 18.0756 11.375 18.0506 11.45C17.8252 11.8625 17.4372 12.4 16.8863 13.05C16.323 13.7 15.7221 14.3625 15.0711 15.025C14.3951 15.6875 13.7441 16.3 13.0806 16.8625C12.4296 17.4125 11.8913 17.7875 11.4657 18.0125C11.4031 18.0375 11.328 18.075 11.2404 18.1125C11.1402 18.15 11.0401 18.1625 10.9274 18.1625C10.7146 18.1625 10.5518 18.0875 10.4141 17.95L9.46269 17.0125C9.14972 16.7 8.84927 16.4625 8.56134 16.3125C8.27341 16.1375 7.98548 16.05 7.67251 16.05C7.43465 16.05 7.18428 16.1 6.90886 16.2125C6.63345 16.325 6.34552 16.4875 6.03255 16.7L1.88883 19.6375C1.56334 19.8625 1.33801 20.125 1.2003 20.4375C1.07511 20.75 0.999999 21.0625 0.999999 21.4125Z" stroke="#12A652" stroke-width="1.5" stroke-miterlimit="10"/>
</svg>
