<svg width="45" height="34" viewBox="0 0 45 34" fill="none" xmlns="http://www.w3.org/2000/svg">
<rect width="45" height="34" fill="#F5F5F5"/>
<g id="Desktop" clip-path="url(#clip0_0_1)">
<rect width="1920" height="4099" transform="translate(-1860 -38)" fill="white"/>
<g id="Home">
<rect id="Rectangle 49" x="-1860" y="-38" width="1920" height="926" fill="#343434"/>
<g id="&#240;&#159;&#166;&#134; icon &#34;United States&#34;">
<g id="Mask group">
<mask id="mask0_0_1" style="mask-type:luminance" maskUnits="userSpaceOnUse" x="0" y="0" width="45" height="34">
<g id="Group">
<path id="Vector" d="M0.319336 0H44.9998V33.8594H0.319336V0Z" fill="white"/>
</g>
</mask>
<g mask="url(#mask0_0_1)">
<g id="Group_2">
<g id="Group_3">
<path id="Vector_2" fill-rule="evenodd" clip-rule="evenodd" d="M0.319336 0H44.9998V33.8594H0.319336V0Z" fill="#F7FCFF"/>
<path id="Vector_3" fill-rule="evenodd" clip-rule="evenodd" d="M0.319336 20.6919V23.5135H44.9998V20.6919H0.319336Z" fill="#E31D1C"/>
<path id="Vector_4" fill-rule="evenodd" clip-rule="evenodd" d="M0.319336 25.8647V28.6864H44.9998V25.8647H0.319336Z" fill="#E31D1C"/>
<path id="Vector_5" fill-rule="evenodd" clip-rule="evenodd" d="M0.319336 10.3457V13.1673H44.9998V10.3457H0.319336Z" fill="#E31D1C"/>
<path id="Vector_6" fill-rule="evenodd" clip-rule="evenodd" d="M0.319336 31.0378V33.8595H44.9998V31.0378H0.319336Z" fill="#E31D1C"/>
<path id="Vector_7" fill-rule="evenodd" clip-rule="evenodd" d="M0.319336 15.519V18.3407H44.9998V15.519H0.319336Z" fill="#E31D1C"/>
<path id="Vector_8" fill-rule="evenodd" clip-rule="evenodd" d="M0.319336 0V2.82162H44.9998V0H0.319336Z" fill="#E31D1C"/>
<path id="Vector_9" fill-rule="evenodd" clip-rule="evenodd" d="M0.319336 5.1731V7.99471H44.9998V5.1731H0.319336Z" fill="#E31D1C"/>
</g>
<path id="Vector_10" d="M0.319336 0H28.2446V18.3405H0.319336V0Z" fill="#2E42A5"/>
<path id="Vector_11" fill-rule="evenodd" clip-rule="evenodd" d="M2.72315 4.14596L1.70963 4.86389L2.0518 3.58625L1.15161 2.77657H2.32738L2.72173 1.73389L3.18413 2.77657H4.18645L3.3989 3.58625L3.70379 4.86389L2.72315 4.14596ZM8.30821 4.14596L7.29469 4.86389L7.63686 3.58625L6.73667 2.77657H7.91244L8.30678 1.73389L8.76918 2.77657H9.7715L8.98396 3.58625L9.28884 4.86389L8.30821 4.14596ZM12.8797 4.86389L13.8933 4.14596L14.8739 4.86389L14.569 3.58625L15.3566 2.77657H14.3542L13.8918 1.73389L13.4975 2.77657H12.3217L13.2219 3.58625L12.8797 4.86389ZM19.4784 4.14596L18.4648 4.86389L18.807 3.58625L17.9067 2.77657H19.0825L19.477 1.73389L19.9393 2.77657H20.9416L20.154 3.58625L20.459 4.86389L19.4784 4.14596ZM1.70963 10.5071L2.72315 9.78919L3.70379 10.5071L3.3989 9.22948L4.18645 8.4198H3.18413L2.72173 7.37712L2.32738 8.4198H1.15161L2.0518 9.22948L1.70963 10.5071ZM8.30821 9.78919L7.29469 10.5071L7.63686 9.22948L6.73667 8.4198H7.91244L8.30678 7.37712L8.76918 8.4198H9.7715L8.98396 9.22948L9.28884 10.5071L8.30821 9.78919ZM12.8797 10.5071L13.8933 9.78919L14.8739 10.5071L14.569 9.22948L15.3566 8.4198H14.3542L13.8918 7.37712L13.4975 8.4198H12.3217L13.2219 9.22948L12.8797 10.5071ZM19.4784 9.78919L18.4648 10.5071L18.807 9.22948L17.9067 8.4198H19.0825L19.477 7.37712L19.9393 8.4198H20.9416L20.154 9.22948L20.459 10.5071L19.4784 9.78919ZM1.70963 16.1504L2.72315 15.4324L3.70379 16.1504L3.3989 14.8727L4.18645 14.063H3.18413L2.72173 13.0203L2.32738 14.063H1.15161L2.0518 14.8727L1.70963 16.1504ZM8.30821 15.4324L7.29469 16.1504L7.63686 14.8727L6.73667 14.063H7.91244L8.30678 13.0203L8.76918 14.063H9.7715L8.98396 14.8727L9.28884 16.1504L8.30821 15.4324ZM12.8797 16.1504L13.8933 15.4324L14.8739 16.1504L14.569 14.8727L15.3566 14.063H14.3542L13.8918 13.0203L13.4975 14.063H12.3217L13.2219 14.8727L12.8797 16.1504ZM19.4784 15.4324L18.4648 16.1504L18.807 14.8727L17.9067 14.063H19.0825L19.477 13.0203L19.9393 14.063H20.9416L20.154 14.8727L20.459 16.1504L19.4784 15.4324ZM24.0499 4.86389L25.0634 4.14596L26.044 4.86389L25.7391 3.58625L26.5267 2.77657H25.5243L25.062 1.73389L24.6676 2.77657H23.4918L24.3921 3.58625L24.0499 4.86389ZM25.0634 9.78919L24.0499 10.5071L24.3921 9.22948L23.4918 8.4198H24.6676L25.062 7.37712L25.5243 8.4198H26.5267L25.7391 9.22948L26.044 10.5071L25.0634 9.78919ZM24.0499 16.1504L25.0634 15.4324L26.044 16.1504L25.7391 14.8727L26.5267 14.063H25.5243L25.062 13.0203L24.6676 14.063H23.4918L24.3921 14.8727L24.0499 16.1504ZM5.51568 6.96757L4.50216 7.68551L4.84433 6.40786L3.94414 5.59819H5.11991L5.51426 4.5555L5.97666 5.59819H6.97898L6.19143 6.40786L6.49632 7.68551L5.51568 6.96757ZM10.0872 7.68551L11.1007 6.96757L12.0814 7.68551L11.7765 6.40786L12.564 5.59819H11.5617L11.0993 4.5555L10.705 5.59819H9.5292L10.4294 6.40786L10.0872 7.68551ZM16.6858 6.96757L15.6723 7.68551L16.0145 6.40786L15.1142 5.59819H16.29L16.6844 4.5555L17.1467 5.59819H18.1491L17.3615 6.40786L17.6664 7.68551L16.6858 6.96757ZM4.50216 13.3287L5.51568 12.6108L6.49632 13.3287L6.19143 12.0511L6.97898 11.2414H5.97666L5.51426 10.1987L5.11991 11.2414H3.94414L4.84433 12.0511L4.50216 13.3287ZM11.1007 12.6108L10.0872 13.3287L10.4294 12.0511L9.5292 11.2414H10.705L11.0993 10.1987L11.5617 11.2414H12.564L11.7765 12.0511L12.0814 13.3287L11.1007 12.6108ZM15.6723 13.3287L16.6858 12.6108L17.6664 13.3287L17.3615 12.0511L18.1491 11.2414H17.1467L16.6844 10.1987L16.29 11.2414H15.1142L16.0145 12.0511L15.6723 13.3287ZM22.2709 6.96757L21.2573 7.68551L21.5996 6.40786L20.6992 5.59819H21.875L22.2695 4.5555L22.7318 5.59819H23.7342L22.9465 6.40786L23.2515 7.68551L22.2709 6.96757ZM21.2573 13.3287L22.2709 12.6108L23.2515 13.3287L22.9465 12.0511L23.7342 11.2414H22.7318L22.2695 10.1987L21.875 11.2414H20.6992L21.5996 12.0511L21.2573 13.3287Z" fill="#F7FCFF"/>
</g>
</g>
</g>
</g>
</g>
</g>
<defs>
<clipPath id="clip0_0_1">
<rect width="1920" height="4099" fill="white" transform="translate(-1860 -38)"/>
</clipPath>
</defs>
</svg>
