<svg width="80" height="80" viewBox="0 0 80 80" fill="none" xmlns="http://www.w3.org/2000/svg">
<g id="&#240;&#159;&#166;&#134; icon &#34;coffee cup&#34;">
<path id="Vector" d="M61.1111 38.311V52.6666C61.1111 66.6578 49.769 77.9999 35.7778 77.9999H27.3333C13.3421 77.9999 2 66.6578 2 52.6666V38.311C2 36.9118 3.13422 35.7777 4.53333 35.7777H58.5778C59.977 35.7777 61.1111 36.9118 61.1111 38.311Z" stroke="white" stroke-width="4" stroke-linecap="round" stroke-linejoin="round"/>
<path id="Vector_2" d="M40 27.3333C40 23.1111 43.0159 18.8889 49.0478 18.8889C55.71 18.8889 61.1111 13.4878 61.1111 6.82538V4.11108" stroke="white" stroke-width="4" stroke-linecap="round" stroke-linejoin="round"/>
<path id="Vector_3" d="M23.1113 27.3333V25.2222C23.1113 18.2266 28.7824 12.5556 35.778 12.5556C40.4419 12.5556 44.2224 8.77485 44.2224 4.11111V2" stroke="white" stroke-width="4" stroke-linecap="round" stroke-linejoin="round"/>
<path id="Vector_4" d="M56.8889 35.7777H67.4445C73.2741 35.7777 78 40.5036 78 46.3333C78 52.1629 73.2741 56.8888 67.4445 56.8888H61.1111" stroke="white" stroke-width="4" stroke-linecap="round" stroke-linejoin="round"/>
</g>
</svg>
