<svg width="84" height="83" viewBox="0 0 84 83" fill="none" xmlns="http://www.w3.org/2000/svg">
<path d="M61.304 39.3086L61.3064 39.3086C62.8897 39.3282 64.4608 39.0306 65.9271 38.4332C67.3934 37.8358 68.7252 36.9508 69.844 35.8304L69.8442 35.8301L81.5006 24.1738C81.5007 24.1737 81.5008 24.1736 81.5009 24.1735C82.1748 23.4954 82.553 22.5782 82.553 21.6222C82.553 20.6661 82.1747 19.7488 81.5006 19.0707L81.5002 19.0703C81.1637 18.731 80.7635 18.4618 80.3224 18.278C79.8814 18.0943 79.4083 17.9997 78.9306 17.9997C78.4528 17.9997 77.9797 18.0943 77.5387 18.278C77.0976 18.4618 76.6974 18.731 76.3609 19.0703L76.357 19.0742L64.5799 30.6865C64.5792 30.6872 64.5786 30.6878 64.5779 30.6885C64.1489 31.1205 63.6387 31.4634 63.0767 31.6976C62.5138 31.9321 61.9101 32.0528 61.3003 32.0528C60.6905 32.0528 60.0867 31.9321 59.5238 31.6976C58.9609 31.4631 58.45 31.1194 58.0206 30.6865L57.6694 30.3324L58.0226 29.9803L72.6041 15.4399C72.9418 15.1023 73.2096 14.7015 73.3923 14.2603C73.5751 13.8192 73.6691 13.3463 73.6691 12.8688C73.6691 12.3914 73.5751 11.9185 73.3923 11.4774C73.2096 11.0362 72.9418 10.6354 72.6041 10.2977C72.2665 9.96011 71.8656 9.69227 71.4245 9.50954C70.9833 9.32681 70.5105 9.23276 70.033 9.23276C69.5555 9.23276 69.0827 9.32681 68.6415 9.50954C68.2006 9.69218 67.8 9.95984 67.4624 10.2972L61.304 39.3086ZM61.304 39.3086C58.1683 39.2849 55.1696 38.0201 52.9641 35.7908L52.6106 35.4335L52.2551 35.7889L44.0167 44.0274L32.3619 55.6822L32.3593 55.6848L7.3582 80.3152L7.35699 80.3164C7.01881 80.6518 6.61774 80.9172 6.17678 81.0973C5.73583 81.2774 5.26365 81.3687 4.78734 81.3659L4.78156 81.3659C4.30524 81.3687 3.83307 81.2774 3.39211 81.0973C2.95116 80.9172 2.55009 80.6518 2.21191 80.3164C1.87267 79.9799 1.60342 79.5796 1.41968 79.1386C1.23594 78.6975 1.14134 78.2245 1.14134 77.7467C1.14134 77.2689 1.23594 76.7959 1.41968 76.3548C1.60342 75.9138 1.87267 75.5135 2.2119 75.177L2.21302 75.1759L24.498 52.9321L24.8529 52.5779L24.4977 52.224L13.6236 41.3911C13.6234 41.3909 13.6232 41.3906 13.6229 41.3904C8.70133 36.4682 4.99407 30.4671 2.79504 23.8629C0.595902 17.2585 -0.0343704 10.2325 0.95419 3.34205L0.959258 3.30673V3.27104V2.9827V2.88484C1.01991 2.66935 1.09897 2.45944 1.19559 2.25743C1.30656 2.04146 1.43898 1.8372 1.59085 1.64774L1.61204 1.6213L1.62947 1.59226L1.73097 1.42309H1.73622H1.87962L2.00122 1.34708L2.6603 0.935161L2.67432 0.926395L2.68773 0.916722C2.85257 0.797866 3.03187 0.700618 3.22125 0.627297C3.39949 0.603452 3.58034 0.605739 3.75808 0.63416L3.7973 0.640432H3.83703H4.66087H4.79783L5.16617 0.885995L5.21151 0.916221L5.2623 0.935972L5.98904 1.21859C6.19455 1.31463 6.38558 1.43904 6.55655 1.58819L6.58997 1.61736L6.62801 1.64018L6.98675 1.85543L41.009 36.0011L41.3612 36.3546L41.7154 36.0031L47.0704 30.6893L47.4264 30.336L47.072 29.981C44.8514 27.7577 43.6041 24.7439 43.6041 21.6016C43.6041 18.4593 44.8514 15.4455 47.072 13.2222L58.7292 1.56498C59.0668 1.22734 59.4676 0.959512 59.9088 0.776781C60.3499 0.59405 60.8228 0.5 61.3003 0.5C61.7778 0.5 62.2506 0.59405 62.6917 0.776781C63.1329 0.959511 63.5337 1.22734 63.8714 1.56498C64.209 1.90263 64.4768 2.30347 64.6596 2.74461C64.8423 3.18576 64.9363 3.65858 64.9363 4.13608C64.9363 4.61358 64.8423 5.0864 64.6596 5.52755C64.4768 5.9687 64.209 6.36954 63.8714 6.70718L52.2139 18.3646L52.2129 18.3657C51.3526 19.2311 50.8697 20.4019 50.8697 21.6222C50.8697 22.8425 51.3526 24.0133 52.2129 24.8788L52.5669 25.2349L52.9216 24.8793L67.4619 10.2977L61.304 39.3086ZM61.3003 39.8086C62.9502 39.829 64.5876 39.5188 66.1157 38.8962C67.6439 38.2736 69.0318 37.3513 70.1978 36.1837L61.3003 39.8086ZM61.3003 39.8086C58.0765 39.7842 54.9918 38.5012 52.7025 36.2363L61.3003 39.8086ZM29.4339 47.6585L29.7912 48.0171L30.1454 47.6554L35.9947 41.6826L36.3412 41.3288L35.9908 40.9789L8.76265 13.792L7.7637 12.7945L7.91214 14.1984C8.81318 22.7195 12.581 30.682 18.5986 36.782L18.6004 36.7837L29.4339 47.6585ZM55.1374 50.0059L55.1389 50.0074L81.0076 75.835L81.0088 75.8361C81.348 76.1726 81.6173 76.5729 81.801 77.0139C81.9848 77.4549 82.0794 77.928 82.0794 78.4058C82.0794 78.8836 81.9848 79.3566 81.801 79.7976C81.6173 80.2387 81.348 80.639 81.0088 80.9754C80.6706 81.3109 80.2695 81.5762 79.8286 81.7564C79.3876 81.9365 78.9155 82.0278 78.4391 82.025L78.4309 82.025L78.4228 82.0252C77.4922 82.0503 76.588 81.716 75.8977 81.0919L49.9564 55.1506C49.9561 55.1502 49.9558 55.1499 49.9554 55.1495C49.2738 54.4626 48.8929 53.5331 48.8963 52.5654C48.8997 51.5972 49.2875 50.67 49.9746 49.9878C50.6616 49.3055 51.5915 48.9242 52.5597 48.9276C53.5279 48.931 54.4551 49.3188 55.1374 50.0059Z" fill="white" stroke="#3B3B3B"/>
</svg>
