<svg width="84" height="83" viewBox="0 0 84 83" fill="none" xmlns="http://www.w3.org/2000/svg">
<g id="&#240;&#159;&#166;&#134; icon &#34;restaurant&#34;">
<path id="Vector" d="M61.3097 38.5586L61.3157 38.5587C62.7988 38.5771 64.2705 38.2982 65.6441 37.7386C67.0177 37.179 68.2653 36.35 69.3133 35.3004L69.3139 35.2998L80.9687 23.645C80.969 23.6447 80.9693 23.6444 80.9696 23.6441C81.5034 23.1066 81.803 22.3798 81.803 21.6222C81.803 20.8642 81.5031 20.137 80.9687 19.5994L80.9677 19.5984C80.701 19.3295 80.3836 19.116 80.034 18.9704C79.6843 18.8247 79.3093 18.7497 78.9306 18.7497C78.5518 18.7497 78.1768 18.8247 77.8271 18.9704C77.4775 19.116 77.1601 19.3295 76.8934 19.5984L76.8836 19.6083L76.8835 19.6082L65.1124 31.2146C65.1106 31.2164 65.1088 31.2182 65.1071 31.22C64.609 31.7207 64.0171 32.1183 63.3651 32.3899C62.7109 32.6625 62.0091 32.8028 61.3003 32.8028C60.5915 32.8028 59.8897 32.6625 59.2354 32.3899C58.5811 32.1173 57.9872 31.7179 57.4881 31.2146L56.6102 30.3295L57.493 29.4492L72.0738 14.9096C72.0739 14.9095 72.0739 14.9095 72.074 14.9094C72.3419 14.6414 72.5544 14.3234 72.6994 13.9733C72.8445 13.6231 72.9191 13.2478 72.9191 12.8688C72.9191 12.4898 72.8445 12.1146 72.6994 11.7644C72.5544 11.4142 72.3418 11.0961 72.0738 10.8281C71.8058 10.5601 71.4876 10.3475 71.1375 10.2025C70.7873 10.0574 70.412 9.98276 70.033 9.98276C69.654 9.98276 69.2787 10.0574 68.9286 10.2025C68.5789 10.3473 68.2611 10.5595 67.9933 10.827C67.993 10.8274 67.9926 10.8277 67.9922 10.8281L53.4526 25.4089L52.5661 26.2979L51.681 25.4075C50.681 24.4015 50.1197 23.0407 50.1197 21.6222C50.1197 20.2037 50.681 18.8429 51.681 17.8369L51.6836 17.8343L63.341 6.17685C63.609 5.90885 63.8216 5.59068 63.9667 5.24054C64.1117 4.89039 64.1863 4.51509 64.1863 4.13608C64.1863 3.75707 64.1117 3.38178 63.9667 3.03162C63.8216 2.68148 63.609 2.36332 63.341 2.09531C63.073 1.82732 62.7549 1.61473 62.4047 1.46969C62.0546 1.32465 61.6793 1.25 61.3003 1.25C60.9213 1.25 60.546 1.32465 60.1958 1.46969C59.8456 1.61473 59.5275 1.82732 59.2595 2.09531L47.6026 13.7522L61.3097 38.5586ZM61.3097 38.5586C58.3723 38.5364 55.5633 37.3516 53.4973 35.2634L52.6134 34.37L51.7248 35.2586L43.4863 43.4971L31.8356 55.1479L31.8289 55.1545L6.83184 79.7809L6.82883 79.7839C6.56072 80.0498 6.24276 80.2602 5.8932 80.403L6.36585 81.5602L5.89319 80.403C5.54361 80.5458 5.16929 80.6181 4.79168 80.6159L4.78445 80.6159L4.77722 80.6159C4.39961 80.6181 4.02528 80.5458 3.67571 80.403L3.20305 81.5602L3.6757 80.403C3.32614 80.2602 3.00818 80.0498 2.74007 79.7839L1.8598 80.6713L2.74005 79.7838C2.47111 79.5171 2.25766 79.1998 2.112 78.8501C1.96633 78.5005 1.89134 78.1255 1.89134 77.7467C1.89134 77.3679 1.96633 76.9929 2.112 76.6433C2.25767 76.2936 2.47112 75.9763 2.74005 75.7095L2.74286 75.7067L25.0279 53.4629L25.9151 52.5773L25.027 51.6926L14.154 40.8608C14.1538 40.8606 14.1537 40.8605 14.1535 40.8603C9.31419 36.0205 5.66888 30.1197 3.50662 23.626C1.3443 17.1321 0.724573 10.2237 1.69659 3.44856L1.70926 3.36026V3.27104V3.27008V3.26911V3.26814V3.26716V3.26618V3.2652V3.26422V3.26323V3.26224V3.26125V3.26026V3.25926V3.25826V3.25726V3.25626V3.25525V3.25424V3.25323V3.25221V3.25119V3.25018V3.24915V3.24813V3.2471V3.24607V3.24504V3.24401V3.24297V3.24193V3.24089V3.23985V3.2388V3.23776V3.23671V3.23565V3.2346V3.23354V3.23248V3.23142V3.23036V3.2293V3.22823V3.22716V3.22609V3.22502V3.22394V3.22286V3.22178V3.2207V3.21962V3.21854V3.21745V3.21636V3.21527V3.21418V3.21308V3.21199V3.21089V3.20979V3.20869V3.20759V3.20648V3.20538V3.20427V3.20316V3.20205V3.20093V3.19982V3.1987V3.19759V3.19647V3.19535V3.19423V3.1931V3.19198V3.19085V3.18972V3.18859V3.18746V3.18633V3.1852V3.18406V3.18293V3.18179V3.18065V3.17951V3.17837V3.17723V3.17608V3.17494V3.17379V3.17264V3.1715V3.17035V3.1692V3.16804V3.16689V3.16574V3.16458V3.16343V3.16227V3.16111V3.15995V3.15879V3.15763V3.15647V3.15531V3.15415V3.15298V3.15182V3.15065V3.14949V3.14832V3.14715V3.14598V3.14481V3.14364V3.14247V3.1413V3.14013V3.13896V3.13778V3.13661V3.13544V3.13426V3.13309V3.13191V3.13073V3.12956V3.12838V3.1272V3.12602V3.12485V3.12367V3.12249V3.12131V3.12013V3.11895V3.11777V3.11659V3.1154V3.11422V3.11304V3.11186V3.11068V3.1095V3.10831V3.10713V3.10595V3.10477V3.10358V3.1024V3.10122V3.10004V3.09885V3.09767V3.09649V3.09531V3.09412V3.09294V3.09176V3.09058V3.08939V3.08821V3.08703V3.08585V3.08467V3.08349V3.08231V3.08113V3.07995V3.07877V3.07759V3.07641V3.07523V3.07405V3.07287V3.0717V3.07052V3.06934V3.06817V3.06699V3.06582V3.06464V3.06347V3.0623V3.06112V3.05995V3.05878V3.05761V3.05644V3.05527V3.0541V3.05293V3.05176V3.0506V3.04943V3.04827V3.0471V3.04594V3.04478V3.04362V3.04246V3.0413V3.04014V3.03898V3.03782V3.03667V3.03551V3.03436V3.0332V3.03205V3.0309V3.02975V3.0286V3.02746V3.02631V3.02517V3.02402V3.02288V3.02174V3.0206V3.01946V3.01832V3.01718V3.01605V3.01491V3.01378V3.01265V3.01152V3.01039V3.00927V3.00814V3.00702V3.0059V3.00477V3.00365V3.00254V3.00142V3.00031V2.99919V2.99808V2.99697V2.99586V2.99476V2.994C1.75272 2.85616 1.80561 2.72142 1.86757 2.59073C1.95241 2.4271 2.05282 2.27202 2.16741 2.12765L2.39872 1.98308L3.0578 1.57116L3.09286 1.54925L3.12639 1.52506C3.21427 1.4617 3.30814 1.4073 3.4066 1.3626C3.48439 1.35837 3.56252 1.36242 3.63966 1.37475L3.73772 1.39043H3.83703H4.57075L4.75015 1.51003L4.8635 1.5856L4.99047 1.63497L5.6919 1.90776C5.8261 1.97269 5.95107 2.05527 6.06348 2.15334L6.14704 2.22624L6.24214 2.2833L6.52112 2.45069L40.4777 36.5305L41.3582 37.4141L42.2437 36.5355L47.5987 31.2217L48.4888 30.3383M61.3097 38.5586L48.4888 30.3383M48.4888 30.3383L47.6026 29.451M48.4888 30.3383L47.6026 29.451M47.6026 29.451C45.5225 27.3683 44.3541 24.5452 44.3541 21.6016C44.3541 18.6583 45.5223 15.8354 47.6021 13.7527L47.6026 29.451ZM28.9026 48.1878L29.7958 49.0844L30.6812 48.1802L36.5305 42.2073L37.3967 41.3229L36.5207 40.4482L9.29258 13.2613L6.79519 10.7676L7.1663 14.2773C8.0852 22.9673 11.9278 31.0878 18.0647 37.3087L18.069 37.313L28.9026 48.1878ZM54.6052 50.5343L54.609 50.5381L80.4777 76.3657L80.4806 76.3686C80.7496 76.6354 80.963 76.9527 81.1087 77.3023C81.2544 77.652 81.3294 78.027 81.3294 78.4058C81.3294 78.7846 81.2544 79.1596 81.1087 79.5092C80.963 79.8588 80.7496 80.1762 80.4806 80.4429L81.3609 81.3304L80.4806 80.4429C80.2125 80.7089 79.8946 80.9193 79.545 81.062C79.1954 81.2048 78.8211 81.2772 78.4435 81.275L78.423 81.2749L78.4025 81.2755C77.6707 81.2952 76.9594 81.0345 76.4139 80.5473L50.4886 54.6221C50.488 54.6214 50.4874 54.6208 50.4867 54.6202C49.9459 54.0745 49.6436 53.3364 49.6462 52.568C49.6489 51.7987 49.9571 51.062 50.503 50.5199C51.0489 49.9779 51.7878 49.6749 52.5571 49.6776C53.3264 49.6803 54.0631 49.9884 54.6052 50.5343Z" fill="white" stroke="#3B3B3B" stroke-width="2.5"/>
</g>
</svg>
