<svg width="106" height="60" viewBox="0 0 106 60" fill="none" xmlns="http://www.w3.org/2000/svg">
<g id="&#240;&#159;&#166;&#134; icon &#34;game controller outline&#34;">
<path id="Vector" d="M100.7 28.2663C96.5303 13.9706 90.3454 4.85146 80.4324 2.62925C78.5125 2.20454 76.5217 1.99267 74.5217 2.00023C68.4275 2.00023 63.6184 4.75006 52.7648 4.75006C41.9113 4.75006 37.093 2.00023 31.0079 2.00023C28.9245 1.99205 26.8498 2.20375 24.8434 2.62925C14.9168 4.85146 8.78408 13.9792 4.56641 28.2663C0.260351 42.8593 1.03998 54.3897 9.45719 56.6034C15.3497 58.1501 20.6189 54.9517 25.6094 50.2444C31.2753 44.8822 38.2534 43.2323 52.7648 43.2323C67.2762 43.2323 73.9824 44.8822 79.6573 50.2444C84.6433 54.9552 90.1074 58.114 95.8435 56.6309C105.14 54.223 105.009 43.0312 100.7 28.2663Z" stroke="white" stroke-width="4" stroke-miterlimit="10"/>
<path id="Vector_2" d="M60.9232 27.4361C63.4265 27.4361 65.4558 25.8972 65.4558 23.9989C65.4558 22.1005 63.4265 20.5616 60.9232 20.5616C58.4199 20.5616 56.3906 22.1005 56.3906 23.9989C56.3906 25.8972 58.4199 27.4361 60.9232 27.4361Z" fill="white"/>
<path id="Vector_3" d="M70.8956 34.9981C69.9987 34.9981 69.1219 34.7963 68.3763 34.4182C67.6306 34.0401 67.0497 33.5028 66.707 32.8742C66.3642 32.2457 66.2752 31.5541 66.451 30.8871C66.6268 30.2201 67.0596 29.6077 67.6946 29.1274C68.3296 28.647 69.1383 28.3203 70.0183 28.1887C70.8983 28.057 71.81 28.1263 72.638 28.3878C73.466 28.6492 74.1731 29.0911 74.6698 29.6575C75.1665 30.2239 75.4304 30.8893 75.4282 31.5695C75.4252 32.4796 74.9463 33.3516 74.0966 33.9944C73.2469 34.6371 72.0958 34.9981 70.8956 34.9981Z" fill="white"/>
<path id="Vector_4" d="M70.8956 19.8739C73.3989 19.8739 75.4282 18.335 75.4282 16.4367C75.4282 14.5384 73.3989 12.9995 70.8956 12.9995C68.3923 12.9995 66.363 14.5384 66.363 16.4367C66.363 18.335 68.3923 19.8739 70.8956 19.8739Z" fill="white"/>
<path id="Vector_5" d="M80.8675 27.4361C83.3708 27.4361 85.4001 25.8972 85.4001 23.9989C85.4001 22.1005 83.3708 20.5616 80.8675 20.5616C78.3643 20.5616 76.335 22.1005 76.335 23.9989C76.335 25.8972 78.3643 27.4361 80.8675 27.4361Z" fill="white"/>
<g id="Group">
<path id="Vector_6" d="M31.0078 15.7494V32.248" stroke="white" stroke-width="3" stroke-linecap="round" stroke-linejoin="round"/>
<path id="Vector_7" d="M41.8859 23.9987H20.1295" stroke="white" stroke-width="3" stroke-linecap="round" stroke-linejoin="round"/>
</g>
</g>
</svg>
