<svg width="94" height="45" viewBox="0 0 94 45" fill="none" xmlns="http://www.w3.org/2000/svg">
<g id="&#240;&#159;&#166;&#134; icon &#34;gym&#34;">
<path id="Vector" d="M28.0838 2H16.6722C15.3216 2 14.2268 3.09482 14.2268 4.44535V40.3105C14.2268 41.6612 15.3216 42.7559 16.6722 42.7559H28.0838C29.4343 42.7559 30.5292 41.6612 30.5292 40.3105V4.44535C30.5292 3.09482 29.4343 2 28.0838 2Z" stroke="white" stroke-width="3" stroke-linecap="round" stroke-linejoin="round"/>
<path id="Vector_2" d="M76.9908 2H65.5791C64.2285 2 63.1338 3.09482 63.1338 4.44535V40.3105C63.1338 41.6612 64.2285 42.7559 65.5791 42.7559H76.9908C78.3414 42.7559 79.4361 41.6612 79.4361 40.3105V4.44535C79.4361 3.09482 78.3414 2 76.9908 2Z" stroke="white" stroke-width="3" stroke-linecap="round" stroke-linejoin="round"/>
<path id="Vector_3" d="M2 32.1593V12.5965C2 11.2459 3.09482 10.1511 4.44535 10.1511H11.7814C13.1319 10.1511 14.2268 11.2459 14.2268 12.5965V32.1593C14.2268 33.5099 13.1319 34.6046 11.7814 34.6046H4.44535C3.09482 34.6046 2 33.5099 2 32.1593Z" stroke="white" stroke-width="3" stroke-linecap="round" stroke-linejoin="round"/>
<path id="Vector_4" d="M91.6628 32.1593V12.5965C91.6628 11.2459 90.5681 10.1511 89.2174 10.1511H81.8814C80.5307 10.1511 79.436 11.2459 79.436 12.5965V32.1593C79.436 33.5099 80.5307 34.6046 81.8814 34.6046H89.2174C90.5681 34.6046 91.6628 33.5099 91.6628 32.1593Z" stroke="white" stroke-width="3" stroke-linecap="round" stroke-linejoin="round"/>
<path id="Vector_5" d="M30.5291 22.3779H63.1337" stroke="white" stroke-width="3" stroke-linecap="round" stroke-linejoin="round"/>
</g>
</svg>
