<svg width="113" height="113" viewBox="0 0 113 113" fill="none" xmlns="http://www.w3.org/2000/svg">
<g id="&#240;&#159;&#166;&#134; icon &#34;capital investment&#34;">
<path id="Vector" d="M28.1653 60.3509C31.2783 60.8128 33.736 62.4423 36.1792 64.0629C37.7239 65.0874 39.2625 66.108 40.8644 66.6992C45.5213 68.4188 51.4194 67.8189 56.9325 67.2581C62.5162 66.6904 67.0608 66.7931 72.5352 66.8368V66.83C73.6069 66.83 74.4289 66.4649 74.9004 65.9008C75.1519 65.5998 75.3074 65.2384 75.3465 64.8487C75.3899 64.4163 75.2985 63.9318 75.0494 63.4279C73.1822 59.6512 66.8242 59.041 63.1084 58.7874C59.1843 58.5198 55.5682 58.5798 53.0088 55.3678C52.2825 54.4563 51.7877 53.43 51.6497 52.3419C51.2057 48.8428 56.3304 38.727 62.7256 40.7061C63.5393 41.4429 68.268 44.7777 69.3061 43.8849C71.365 42.1159 73.9335 40.8492 76.5379 40.1222C56.2271 23.9216 49.7095 41.6581 28.1653 42.1554V39.719C28.1653 39.3517 28.1335 38.9896 28.0723 38.6361C52.8098 36.9667 54.9532 20.2073 79.2705 37.8002C81.448 39.4318 82.9645 40.5279 82.1414 42.1491L80.5091 42.6436C79.6408 42.9066 78.7395 43.1554 77.9935 43.3612C76.1934 43.858 75.5236 44.0429 73.2228 45.3794C72.3952 45.8602 71.9236 46.2654 71.5889 46.553C70.1334 47.8037 67.853 47.7596 65.2828 46.6244C63.7516 45.9481 62.8244 45.2008 61.9666 44.5095C61.5832 44.2005 61.2165 43.9049 60.8553 43.6767C59.3673 42.7367 52.8667 51.1363 56.8066 54.2029C58.4423 54.9461 60.851 55.1106 63.3421 55.2805C68.5514 55.6359 75.6072 56.6322 78.1987 61.8739C78.7506 62.9901 78.9468 64.1259 78.8397 65.1926C78.7283 66.3021 78.295 67.3197 77.5958 68.1563C76.4822 69.4887 74.7119 70.3508 72.5352 70.3508L72.5214 70.3439C67.1604 70.3011 62.7242 70.1972 57.2764 70.7513C51.372 71.3519 45.0556 71.9944 39.6542 69.9998C37.6706 69.2677 35.9589 68.1323 34.24 66.9923C32.3022 65.707 30.3539 64.415 28.1652 63.9363L28.1653 60.3509Z" fill="white"/>
<path id="Vector_2" fill-rule="evenodd" clip-rule="evenodd" d="M86.1709 61.5116C84.7189 60.8066 83.2876 60.4542 83.2876 59.298C83.2876 58.2613 83.893 57.9514 84.8593 57.9514C85.5436 57.9514 86.1351 58.2048 86.6852 58.6356C87.1018 58.988 87.5806 59.2203 88.1588 59.2203C89.2365 59.2203 90.0197 58.2048 90.0197 57.2398C90.0197 56.5135 89.6454 55.8927 88.9615 55.4134C88.3769 54.9691 87.7283 54.6311 87.0591 54.3979V53.4748C87.0591 52.5793 86.3328 51.8539 85.4374 51.8539H84.2596C83.3649 51.8539 82.6387 52.5793 82.6387 53.4748V54.4895C80.5804 55.3573 79.3253 57.3875 79.3253 59.3826C79.3253 62.5548 82.1452 63.9011 84.5139 65.0008C86.3963 65.8674 87.0237 66.4109 87.0237 67.214C87.0237 68.5607 85.9024 69.2303 84.5985 69.2303C83.8511 69.2303 83.168 69.1453 82.3429 68.5468C81.9267 68.1941 81.4401 67.9044 80.8546 67.9044C79.7769 67.9044 78.9941 68.9203 78.9941 69.8858C78.9941 70.5912 79.3465 71.162 79.995 71.6625C80.7147 72.2117 81.7998 72.6845 82.6387 72.9099V73.6149C82.6387 74.51 83.3649 75.2366 84.2596 75.2366H85.4374C86.3328 75.2366 87.0591 74.51 87.0591 73.6149V72.7768C89.4274 71.9798 91.0486 69.9915 91.0486 67.0944C91.0417 64.1899 89.0258 62.9002 86.1709 61.5116Z" fill="white"/>
<g id="Group">
<path id="Vector_3" d="M16.7026 35H22.0569C23.2726 35 24.3718 35.5234 25.1635 36.3664C25.9295 37.1822 26.405 38.2977 26.405 39.516V63.9422C26.405 65.1605 25.9294 66.276 25.1634 67.0917C24.3717 67.9348 23.2723 68.4581 22.0569 68.4581H16.7026C15.4871 68.4581 14.3877 67.9348 13.5959 67.0917C12.83 66.2761 12.3545 65.1607 12.3545 63.9422V39.516C12.3545 38.2975 12.8299 37.182 13.5959 36.3663C14.3876 35.5233 15.4869 35 16.7026 35ZM22.0569 38.5207H16.7026C16.4948 38.5207 16.3001 38.6173 16.1539 38.773C15.982 38.9561 15.8752 39.2185 15.8752 39.516V63.9422C15.8752 64.2395 15.982 64.5019 16.1539 64.685C16.3001 64.8407 16.4949 64.9374 16.7026 64.9374H22.0569C22.2645 64.9374 22.4593 64.8407 22.6055 64.685C22.7774 64.5018 22.8843 64.2395 22.8843 63.9422V39.516C22.8843 39.2187 22.7775 38.9562 22.6055 38.7731C22.4593 38.6174 22.2647 38.5207 22.0569 38.5207Z" fill="white"/>
<path id="Vector_4" d="M68.9639 52.8672C69.6529 51.8128 70.4565 50.8301 71.3593 49.9344C72.2602 49.0405 73.2509 48.244 74.3161 47.56C78.5075 44.8681 83.3906 44.1293 87.8971 45.111C92.4071 46.0936 96.543 48.7974 99.2353 52.9893C101.927 57.1808 102.666 62.064 101.684 66.5703C100.702 71.0805 97.9978 75.2163 93.8059 77.9085C89.6145 80.6004 84.7314 81.3391 80.225 80.3575C75.7149 79.3749 71.579 76.6711 68.8867 72.4791L71.8435 70.5813C74.0091 73.9533 77.3374 76.1286 80.9677 76.9194C84.6016 77.711 88.5357 77.1177 91.9081 74.9518C95.28 72.7862 97.4553 69.4579 98.2462 65.8277C99.0378 62.1938 98.4445 58.2597 96.2786 54.8872C94.113 51.5152 90.7846 49.34 87.1545 48.5491C83.5205 47.7575 79.5864 48.3509 76.214 50.5168C75.3499 51.0717 74.5527 51.7114 73.8348 52.4236C73.1188 53.134 72.4721 53.9277 71.9069 54.7926L68.9639 52.8672L68.9639 52.8672Z" fill="white"/>
</g>
</g>
</svg>
