<svg width="91" height="52" viewBox="0 0 91 52" fill="none" xmlns="http://www.w3.org/2000/svg">
<path d="M16.1653 31.3509C19.2783 31.8128 21.736 33.4423 24.1792 35.0629C25.7239 36.0874 27.2625 37.108 28.8644 37.6992C33.5213 39.4188 39.4194 38.8189 44.9325 38.2581C50.5162 37.6904 55.0608 37.7931 60.5352 37.8368V37.83C61.6069 37.83 62.4289 37.4649 62.9004 36.9008C63.1519 36.5998 63.3074 36.2384 63.3465 35.8487C63.3899 35.4163 63.2985 34.9318 63.0494 34.4279C61.1822 30.6512 54.8242 30.041 51.1084 29.7874C47.1843 29.5198 43.5682 29.5798 41.0088 26.3678C40.2825 25.4563 39.7877 24.43 39.6497 23.3419C39.2057 19.8428 44.3304 9.727 50.7256 11.7061C51.5393 12.4429 56.268 15.7777 57.3061 14.8849C59.365 13.1159 61.9335 11.8492 64.5379 11.1222C44.2271 -5.07837 37.7095 12.6581 16.1653 13.1554V10.719C16.1653 10.3517 16.1335 9.98964 16.0723 9.63606C40.8098 7.96672 42.9532 -8.79267 67.2705 8.80019C69.448 10.4318 70.9645 11.5279 70.1414 13.1491L68.5091 13.6436C67.6408 13.9066 66.7395 14.1554 65.9935 14.3612C64.1934 14.858 63.5236 15.0429 61.2228 16.3794C60.3952 16.8602 59.9236 17.2654 59.5889 17.553C58.1334 18.8037 55.853 18.7596 53.2828 17.6244C51.7516 16.9481 50.8244 16.2008 49.9666 15.5095C49.5832 15.2005 49.2165 14.9049 48.8553 14.6767C47.3673 13.7367 40.8667 22.1363 44.8066 25.2029C46.4423 25.9461 48.851 26.1106 51.3421 26.2805C56.5514 26.6359 63.6072 27.6322 66.1987 32.8739C66.7506 33.9901 66.9468 35.1259 66.8397 36.1926C66.7283 37.3021 66.295 38.3197 65.5958 39.1563C64.4822 40.4887 62.7119 41.3508 60.5352 41.3508L60.5214 41.3439C55.1604 41.3011 50.7242 41.1972 45.2764 41.7513C39.372 42.3519 33.0556 42.9944 27.6542 40.9998C25.6706 40.2677 23.9589 39.1323 22.24 37.9923C20.3022 36.707 18.3539 35.415 16.1652 34.9363L16.1653 31.3509Z" fill="white"/>
<path fill-rule="evenodd" clip-rule="evenodd" d="M74.1709 32.5116C72.7189 31.8066 71.2876 31.4542 71.2876 30.298C71.2876 29.2613 71.893 28.9514 72.8593 28.9514C73.5436 28.9514 74.1351 29.2048 74.6852 29.6356C75.1018 29.988 75.5806 30.2203 76.1588 30.2203C77.2365 30.2203 78.0197 29.2048 78.0197 28.2398C78.0197 27.5135 77.6454 26.8927 76.9615 26.4134C76.3769 25.9691 75.7283 25.6311 75.0591 25.3979V24.4748C75.0591 23.5793 74.3328 22.8539 73.4374 22.8539H72.2596C71.3649 22.8539 70.6387 23.5793 70.6387 24.4748V25.4895C68.5804 26.3573 67.3253 28.3875 67.3253 30.3826C67.3253 33.5548 70.1452 34.9011 72.5139 36.0008C74.3963 36.8674 75.0237 37.4109 75.0237 38.214C75.0237 39.5607 73.9024 40.2303 72.5985 40.2303C71.8511 40.2303 71.168 40.1453 70.3429 39.5468C69.9267 39.1941 69.4401 38.9044 68.8546 38.9044C67.7769 38.9044 66.9941 39.9203 66.9941 40.8858C66.9941 41.5912 67.3465 42.162 67.995 42.6625C68.7147 43.2117 69.7998 43.6845 70.6387 43.9099V44.6149C70.6387 45.51 71.3649 46.2366 72.2596 46.2366H73.4374C74.3328 46.2366 75.0591 45.51 75.0591 44.6149V43.7768C77.4274 42.9798 79.0486 40.9915 79.0486 38.0944C79.0417 35.1899 77.0258 33.9002 74.1709 32.5116Z" fill="white"/>
<path d="M4.70258 6H10.0569C11.2726 6 12.3718 6.52335 13.1635 7.36637C13.9295 8.18216 14.405 9.29768 14.405 10.516V34.9422C14.405 36.1605 13.9294 37.276 13.1634 38.0917C12.3717 38.9348 11.2723 39.4581 10.0569 39.4581H4.70258C3.48708 39.4581 2.38768 38.9348 1.59592 38.0917C0.830026 37.2761 0.354492 36.1607 0.354492 34.9422V10.516C0.354492 9.29749 0.829896 8.18197 1.59592 7.36631C2.38761 6.52329 3.48688 6 4.70258 6ZM10.0569 9.52073H4.70258C4.4948 9.52073 4.30008 9.61734 4.15389 9.77302C3.98197 9.95611 3.87522 10.2185 3.87522 10.516V34.9422C3.87522 35.2395 3.98197 35.5019 4.15389 35.685C4.30008 35.8407 4.49486 35.9374 4.70258 35.9374H10.0569C10.2645 35.9374 10.4593 35.8407 10.6055 35.685C10.7774 35.5018 10.8843 35.2395 10.8843 34.9422V10.516C10.8843 10.2187 10.7775 9.95624 10.6055 9.77308C10.4593 9.61741 10.2647 9.52073 10.0569 9.52073Z" fill="white"/>
<path d="M56.9639 23.8672C57.6529 22.8128 58.4565 21.8301 59.3593 20.9344C60.2602 20.0405 61.2509 19.244 62.3161 18.56C66.5075 15.8681 71.3906 15.1293 75.8971 16.111C80.4071 17.0936 84.543 19.7974 87.2353 23.9893C89.9272 28.1808 90.6659 33.064 89.6842 37.5703C88.7016 42.0805 85.9978 46.2163 81.8059 48.9085C77.6145 51.6004 72.7314 52.3391 68.225 51.3575C63.7149 50.3749 59.579 47.6711 56.8867 43.4791L59.8435 41.5813C62.0091 44.9533 65.3374 47.1286 68.9677 47.9194C72.6016 48.711 76.5357 48.1177 79.9081 45.9518C83.28 43.7862 85.4553 40.4579 86.2462 36.8277C87.0378 33.1938 86.4445 29.2597 84.2786 25.8872C82.113 22.5152 78.7846 20.34 75.1545 19.5491C71.5205 18.7575 67.5864 19.3509 64.214 21.5168C63.3499 22.0717 62.5527 22.7114 61.8348 23.4236C61.1188 24.134 60.4721 24.9277 59.9069 25.7926L56.9639 23.8672L56.9639 23.8672Z" fill="white"/>
</svg>
