<svg width="78" height="78" viewBox="0 0 78 78" fill="none" xmlns="http://www.w3.org/2000/svg">
<g id="&#240;&#159;&#166;&#134; icon &#34;headphone music&#34;">
<path id="Vector" d="M2 48.0378V71.9774C2 74.0116 3.64896 75.6605 5.68302 75.6605H19.3628C21.3969 75.6605 23.0459 74.0116 23.0459 71.9774V51.7208C23.0459 49.6867 21.3969 48.0378 19.3628 48.0378H2ZM2 48.0378V38.8302C2 18.4894 18.4894 2 38.8302 2C59.1708 2 75.6605 18.4894 75.6605 38.8302V48.0378M75.6605 48.0378V71.9774C75.6605 74.0116 74.0116 75.6605 71.9774 75.6605H58.2976C56.2635 75.6605 54.6146 74.0116 54.6146 71.9774V51.7208C54.6146 49.6867 56.2635 48.0378 58.2976 48.0378H75.6605Z" stroke="white" stroke-width="4" stroke-linecap="round" stroke-linejoin="round"/>
</g>
</svg>
