<svg width="87" height="63" viewBox="0 0 87 63" fill="none" xmlns="http://www.w3.org/2000/svg">
<g id="&#240;&#159;&#166;&#134; icon &#34;youtube&#34;">
<path id="Vector" d="M51.7999 31.4654L37.2749 39.7654V23.1654L51.7999 31.4654Z" fill="white" stroke="white" stroke-width="4" stroke-linecap="round" stroke-linejoin="round"/>
<path id="Vector_2" d="M2 34.4015V28.5289C2 16.5132 2 10.5054 5.75778 6.63978C9.51561 2.77418 15.4317 2.60685 27.2639 2.2722C32.8707 2.11363 38.598 2 43.5 2C48.402 2 54.1294 2.11363 59.736 2.2722C71.5681 2.60685 77.4844 2.77418 81.2422 6.63978C85 10.5054 85 16.5132 85 28.5289V34.4015C85 46.417 85 52.425 81.2422 56.2903C77.4844 60.156 71.5685 60.3233 59.7365 60.6582C54.1294 60.8167 48.402 60.9304 43.5 60.9304C38.598 60.9304 32.8705 60.8167 27.2635 60.6582C15.4315 60.3233 9.51553 60.156 5.75774 56.2903C2 52.425 2 46.417 2 34.4015Z" stroke="white" stroke-width="4"/>
</g>
</svg>
