<svg width="78" height="78" viewBox="0 0 78 78" fill="none" xmlns="http://www.w3.org/2000/svg">
<g id="&#240;&#159;&#166;&#134; emoji &#34;airplane&#34;">
<g id="Group">
<path id="Vector" d="M64.0156 32.8567L68.8261 61.7404C69.3771 65.0478 68.2971 68.4178 65.9261 70.7888L60.6187 76.0962L50.9265 45.207" stroke="white" stroke-width="3" stroke-linecap="round" stroke-linejoin="round"/>
<path id="Vector_2" d="M32.6444 27.0984L2 17.4833L7.30741 12.1759C9.67854 9.80492 13.0484 8.7249 16.356 9.27596L45.2397 14.0865" stroke="white" stroke-width="3" stroke-linecap="round" stroke-linejoin="round"/>
<path id="Vector_3" d="M75.5412 6.73053L75.3068 5.86277C74.892 4.32395 73.6979 3.11695 72.1636 2.68544L71.3048 2.44959C68.6195 1.48452 65.62 2.09922 63.5306 4.0427L20.7316 46.7749L11.3286 45.526L3.53662 53.4055L18.3167 59.7839L24.4238 74.9229L32.3908 66.8713L31.2828 57.3364L74.0031 14.6234C75.9202 12.4715 76.51 9.4449 75.5412 6.73053Z" stroke="white" stroke-width="3" stroke-linejoin="round"/>
</g>
</g>
</svg>
